<svg width="689.67004" height="573.44613" viewBox="0 0 901 649" fill="none" xmlns="http://www.w3.org/2000/svg">
<g id="frame">
<g id="Mountains">
<path id="Vector" d="M435.735 237.527C428.066 224.843 418.978 211.299 404.746 207.158C388.264 202.361 371.333 211.889 356.971 221.292C314.022 249.412 272.661 279.886 233.078 312.575L233.121 313.068C263.938 310.942 294.755 308.817 325.572 306.692C347.837 305.157 370.868 303.409 390.544 292.876C398.011 288.88 405.289 283.541 413.75 283.169C424.261 282.706 433.427 290.048 440.63 297.718C483.237 343.089 495.567 412.472 543.368 452.334C513.226 377.999 477.236 306.171 435.735 237.527V237.527Z" fill="#F2F2F2"/>
<path id="Vector_2" d="M697.636 622.355C692.925 616.406 690.999 615.012 686.352 609.008C648.509 560.064 612.94 509.466 579.644 457.215C557.028 421.729 535.534 385.561 515.161 348.711C505.462 331.192 496.029 313.536 486.861 295.742C479.748 281.946 472.793 268.066 465.997 254.104C464.053 250.117 462.165 246.111 460.286 242.095C455.858 232.653 451.512 223.165 446.846 213.851C441.529 203.235 435.057 192.106 425.294 184.974C420.85 181.595 415.537 179.55 409.975 179.079C402.027 178.566 394.693 181.848 387.799 185.432C337.361 211.733 290.14 244.708 247.43 282.23C204.61 319.836 166.336 362.322 133.388 408.821C132.38 410.26 129.996 408.885 131.014 407.437C135.02 401.772 139.106 396.167 143.271 390.624C195.059 321.746 258.56 262.515 330.87 215.638C343.036 207.754 355.43 200.24 368.053 193.096C374.415 189.493 380.805 185.936 387.304 182.599C393.676 179.327 400.441 176.384 407.72 176.274C432.49 175.889 445.315 203.941 454.125 222.816C456.894 228.757 459.696 234.679 462.531 240.583C473.248 262.997 484.377 285.206 495.919 307.211C503.042 320.797 510.321 334.303 517.756 347.73C540.894 389.542 565.486 430.508 591.534 470.627C626.04 523.77 660.271 570.716 699.58 620.412C700.662 621.787 698.728 623.749 697.636 622.355Z" fill="#E4E4E4"/>
<path id="Vector_3" d="M244.982 268.378C243.543 266.774 242.113 265.169 240.664 263.565C229.242 250.933 216.985 238.447 201.3 231.204C193.821 227.642 185.656 225.75 177.373 225.658C168.811 225.686 160.441 227.932 152.53 231.076C148.789 232.57 145.131 234.266 141.529 236.072C137.413 238.144 133.37 240.354 129.346 242.581C121.792 246.761 114.335 251.125 106.977 255.672C92.337 264.72 78.1551 274.459 64.4318 284.888C57.3177 290.297 50.3505 295.883 43.53 301.646C37.1863 307 30.9709 312.497 24.8839 318.138C23.5822 319.339 21.6386 317.396 22.9403 316.195C24.5445 314.7 26.1672 313.215 27.7898 311.749C32.3735 307.605 37.0305 303.541 41.761 299.556C50.3872 292.277 59.2367 285.279 68.3095 278.563C82.4182 268.112 97.0125 258.37 112.092 249.337C119.628 244.827 127.268 240.506 135.011 236.375C137.349 235.128 139.714 233.909 142.106 232.754C147.535 230.015 153.176 227.719 158.974 225.887C167.187 223.231 175.877 222.377 184.45 223.385C192.728 224.589 200.703 227.348 207.955 231.516C223.356 240.124 235.301 253.435 246.925 266.425C248.099 267.745 246.164 269.698 244.982 268.378Z" fill="#E4E4E4"/>
<path id="Vector_4" d="M560.542 399.285L597.447 385.787L615.77 379.085C621.738 376.902 627.691 374.418 633.86 372.855C639.221 371.323 644.913 371.396 650.234 373.063C654.978 374.819 659.321 377.512 663.005 380.98C666.768 384.445 670.269 388.184 673.48 392.166C677.469 396.961 681.399 401.805 685.347 406.634C701.641 426.561 717.829 446.575 733.91 466.675C749.991 486.775 765.964 506.96 781.83 527.231C797.735 547.551 813.53 567.956 829.216 588.447C831.137 590.957 833.057 593.468 834.975 595.981C836.035 597.369 838.425 596 837.35 594.593C821.548 573.896 805.637 553.285 789.615 532.758C773.554 512.182 757.382 491.693 741.099 471.292C724.816 450.891 708.423 430.579 691.92 410.355C687.809 405.316 683.691 400.283 679.566 395.256C676.086 391.015 672.646 386.729 668.829 382.782C661.824 375.537 653.072 369.134 642.595 368.96C636.435 368.858 630.474 370.813 624.751 372.883C618.581 375.115 612.426 377.389 606.265 379.642L569.102 393.235L559.811 396.633C558.163 397.236 558.875 399.895 560.542 399.285L560.542 399.285Z" fill="#E4E4E4"/>
<path id="Vector_5" d="M196.443 247.1C177.689 237.461 153.672 239.349 136.438 251.391C169.31 257.063 201.822 264.651 233.809 274.117C220.526 266.333 210.136 254.138 196.443 247.1Z" fill="#F2F2F2"/>
<path id="Vector_6" d="M136.253 251.358L132.643 254.293C133.864 253.266 135.134 252.303 136.438 251.391C136.376 251.381 136.315 251.369 136.253 251.358Z" fill="#F2F2F2"/>
<path id="Vector_7" d="M661.615 399.42C657.982 394.998 654.054 390.368 648.621 388.571L643.548 388.771C682.165 457.01 734.322 516.637 796.815 563.992C751.748 509.135 706.682 454.277 661.615 399.42Z" fill="#F2F2F2"/>
<path id="Vector_8" d="M346.15 362.941C348.497 371.47 353.786 378.894 361.081 383.899C363.901 385.819 367.237 387.661 368.202 390.934C368.71 393.02 368.397 395.221 367.329 397.084C366.262 398.922 364.964 400.616 363.467 402.125L363.331 402.637C356.332 398.49 349.674 393.244 345.808 386.086C341.943 378.928 341.403 369.547 346.15 362.94" fill="#F2F2F2"/>
<path id="Vector_9" d="M579.149 565.941C581.497 574.47 586.786 581.894 594.081 586.899C596.901 588.819 600.237 590.661 601.202 593.934C601.71 596.02 601.397 598.221 600.329 600.084C599.262 601.922 597.964 603.616 596.467 605.125L596.331 605.637C589.332 601.49 582.674 596.244 578.808 589.086C574.942 581.928 574.403 572.547 579.15 565.941" fill="#F2F2F2"/>
<path id="Vector_10" d="M114.15 551.941C116.497 560.47 121.786 567.894 129.081 572.899C131.901 574.819 135.237 576.661 136.202 579.934C136.71 582.02 136.397 584.221 135.329 586.084C134.262 587.922 132.965 589.616 131.467 591.125L131.331 591.637C124.332 587.49 117.674 582.244 113.808 575.086C109.943 567.928 109.403 558.547 114.15 551.941" fill="#F2F2F2"/>
<path id="Vector_11" d="M745.399 205C773.566 205 796.399 182.167 796.399 154C796.399 125.833 773.566 103 745.399 103C717.233 103 694.399 125.833 694.399 154C694.399 182.167 717.233 205 745.399 205Z" fill="#6C63FF"/>
<path id="Vector_12" d="M837.435 114.87C812.718 111.529 784.5 124.889 778.094 148.994C776.479 144.708 773.544 141.046 769.712 138.538C765.88 136.029 761.35 134.804 756.777 135.039C752.203 135.273 747.822 136.956 744.267 139.844C740.712 142.731 738.167 146.674 737 151.103L739.83 153.129C792.797 164.584 847.627 164.336 900.489 152.403C883.296 134.334 862.152 118.211 837.435 114.87Z" fill="#F0F0F0"/>
<path id="Vector_13" d="M731.435 182.87C706.718 179.529 678.5 192.889 672.094 216.994C670.479 212.708 667.544 209.046 663.712 206.538C659.88 204.029 655.35 202.804 650.777 203.039C646.203 203.273 641.822 204.956 638.267 207.844C634.712 210.731 632.167 214.674 631 219.103L633.83 221.129C686.797 232.584 741.627 232.336 794.489 220.403C777.296 202.334 756.152 186.211 731.435 182.87Z" fill="#F0F0F0"/>
<path id="Vector_14" d="M851.011 169.728C850.909 169.728 850.807 169.713 850.709 169.681C586.303 86.0632 353.265 96.9977 204.33 120.895C184.061 124.146 163.738 127.901 143.926 132.056C138.868 133.116 133.62 134.252 128.329 135.434C122.01 136.841 115.775 138.291 109.797 139.74C107.215 140.351 104.683 140.967 102.202 141.589C98.4438 142.516 94.6303 143.483 90.5424 144.546C85.9746 145.723 81.3334 146.959 76.7451 148.217C76.7283 148.223 76.7112 148.228 76.6938 148.232L76.6943 148.233C71.5117 149.648 66.3564 151.104 61.371 152.558C58.6728 153.338 56.0673 154.106 53.5717 154.865C53.2929 154.942 53.0459 155.016 52.7954 155.092L52.2592 155.256C51.9487 155.35 51.642 155.443 51.3354 155.531L51.3159 155.537L51.3163 155.538L50.5048 155.79C49.5371 156.083 48.5927 156.369 47.664 156.654C23.1191 164.22 9.62592 169.603 9.49262 169.656C9.37072 169.705 9.2404 169.729 9.10909 169.728C8.97777 169.726 8.84804 169.699 8.7273 169.647C8.60656 169.596 8.49716 169.521 8.40537 169.427C8.31358 169.333 8.24119 169.222 8.19233 169.1C8.14347 168.978 8.1191 168.848 8.12061 168.716C8.12212 168.585 8.14947 168.455 8.20112 168.335C8.25276 168.214 8.32767 168.104 8.42159 168.013C8.51551 167.921 8.62658 167.848 8.74848 167.8C8.88276 167.747 22.4419 162.337 47.0761 154.742C48.0083 154.456 48.955 154.17 49.9257 153.876L50.6796 153.641C50.7055 153.632 50.7314 153.624 50.7578 153.616C51.0629 153.529 51.3676 153.436 51.6772 153.343L52.2143 153.179C52.4819 153.098 52.7455 153.018 53.0156 152.944C55.4941 152.19 58.1083 151.42 60.8134 150.637C65.8007 149.182 70.9609 147.726 76.1474 146.309C76.1635 146.303 76.1801 146.3 76.1963 146.295V146.294C80.8007 145.031 85.4589 143.791 90.0415 142.609C94.1357 141.546 97.9565 140.577 101.721 139.647C104.213 139.027 106.749 138.41 109.331 137.795C115.316 136.344 121.563 134.892 127.894 133.482C133.193 132.299 138.449 131.16 143.516 130.099C163.359 125.937 183.713 122.177 204.013 118.921C353.162 94.989 586.533 84.0368 851.312 167.775C851.54 167.847 851.734 167.998 851.86 168.201C851.986 168.403 852.036 168.645 851.999 168.881C851.963 169.117 851.843 169.332 851.662 169.487C851.481 169.643 851.25 169.728 851.011 169.728V169.728Z" fill="#CCCCCC"/>
<path id="Vector_15" d="M262.989 496.84C262.642 495.827 262.06 494.912 261.289 494.17C261.004 493.906 260.696 493.668 260.369 493.46C257.759 491.72 253.859 491.33 251.379 493.46C251.129 493.677 250.898 493.914 250.689 494.17C249.949 495.08 249.189 495.97 248.409 496.84C247.129 498.3 245.819 499.71 244.449 501.08C244.059 501.46 243.669 501.85 243.269 502.23C243.039 502.46 242.809 502.68 242.579 502.9C241.699 503.74 240.799 504.55 239.889 505.35C239.409 505.78 238.929 506.2 238.439 506.61C237.709 507.22 236.979 507.83 236.239 508.42C236.169 508.47 236.099 508.52 236.029 508.58C236.009 508.59 235.999 508.61 235.979 508.62C235.969 508.62 235.959 508.62 235.949 508.64C235.922 508.651 235.898 508.668 235.879 508.69C235.659 508.84 235.509 508.94 235.399 509.03C235.439 509.01 235.479 508.98 235.519 508.96C235.339 509.1 235.149 509.24 234.969 509.38C233.219 510.67 231.429 511.91 229.599 513.07C225.071 515.968 220.315 518.493 215.379 520.62C215.049 520.75 214.709 520.89 214.369 521.02C201.443 526.315 187.422 528.382 173.519 527.04C172.099 526.93 170.679 526.78 169.259 526.59C167.619 526.35 165.989 526.06 164.369 525.73C158.201 524.499 152.167 522.678 146.349 520.29C139.071 516.957 132.149 512.897 125.689 508.17C124.689 507.46 123.679 506.75 122.669 506.06C123.819 503.24 124.949 500.42 126.049 497.58C126.599 496.21 127.129 494.84 127.649 493.46C131.739 482.83 135.579 472.1 139.259 461.33C142.979 450.42 146.489 439.447 149.789 428.41C150.129 427.29 150.459 426.17 150.779 425.05C152.509 419.22 154.169 413.377 155.759 407.52C155.909 406.95 156.069 406.39 156.209 405.82C156.669 404.14 157.119 402.46 157.559 400.78C158.559 396.99 156.299 392.46 152.319 391.55C150.402 391.059 148.37 391.33 146.65 392.308C144.931 393.285 143.657 394.892 143.099 396.79C142.669 398.41 142.239 400.02 141.799 401.64C139.689 409.47 137.469 417.273 135.139 425.05C134.799 426.17 134.459 427.29 134.119 428.41C128.979 445.35 123.335 462.12 117.189 478.72C116.449 480.73 115.699 482.733 114.939 484.73C114.569 485.71 114.199 486.69 113.819 487.67C113.089 489.6 112.339 491.53 111.589 493.46C111.159 494.59 110.719 495.72 110.279 496.84C109.989 497.55 109.709 498.26 109.429 498.96C106.578 497.936 103.624 497.225 100.619 496.84L100.139 496.78C97.8092 496.5 95.4532 496.52 93.1288 496.84C89.6498 497.246 86.3025 498.411 83.3235 500.253C80.3444 502.095 77.8064 504.569 75.8888 507.5C71.1188 515.01 71.1788 525.75 77.8688 532.13C84.7588 538.7 95.1888 538.65 103.299 534.54C107.597 532.215 111.22 528.818 113.819 524.68C114.814 523.18 115.729 521.628 116.559 520.03C116.769 520.17 116.979 520.31 117.189 520.46C117.989 521.02 118.789 521.59 119.579 522.15C124.182 525.485 129.033 528.463 134.089 531.06C144.961 536.465 156.664 540.004 168.709 541.53C168.979 541.56 169.239 541.6 169.509 541.63C170.839 541.8 172.179 541.93 173.519 542.04C192.741 543.489 211.987 539.555 229.099 530.68C230.549 529.93 231.985 529.143 233.409 528.32C235.619 527.04 237.779 525.68 239.889 524.24C241.039 523.46 242.159 522.67 243.269 521.84C248.119 518.267 252.641 514.268 256.779 509.89C258.349 508.24 259.852 506.537 261.289 504.78C262.647 503.343 263.43 501.457 263.489 499.48C263.481 498.577 263.312 497.683 262.989 496.84V496.84ZM97.3988 520.66C97.6088 520.51 97.8188 520.35 98.0188 520.19C97.9588 520.34 97.6688 520.51 97.3988 520.66H97.3988ZM100.609 517.43C100.379 517.69 100.169 517.95 99.9388 518.21C99.239 518.993 98.4873 519.728 97.6888 520.41C97.5788 520.51 97.4588 520.61 97.3388 520.7C97.3375 520.7 97.3361 520.7 97.3349 520.701C97.3337 520.701 97.3326 520.702 97.3316 520.703C97.3307 520.704 97.33 520.705 97.3295 520.706C97.329 520.707 97.3287 520.709 97.3288 520.71C97.1843 520.775 97.044 520.848 96.9087 520.93C96.4787 521.19 96.0387 521.43 95.5888 521.65C94.7077 521.974 93.8013 522.225 92.8788 522.4C92.1699 522.452 91.4585 522.458 90.7488 522.42H90.7288C90.239 522.311 89.755 522.178 89.2788 522.02C89.0388 521.9 88.8088 521.76 88.5788 521.62C88.4888 521.54 88.4087 521.46 88.3588 521.41C88.2611 521.321 88.1708 521.224 88.0888 521.12C88.0889 521.119 88.0886 521.117 88.0881 521.116C88.0876 521.115 88.0869 521.114 88.086 521.113C88.085 521.112 88.0839 521.111 88.0827 521.111C88.0814 521.11 88.0801 521.11 88.0788 521.11C87.9688 520.91 87.8488 520.71 87.7388 520.51C87.7331 520.505 87.7296 520.498 87.7288 520.49C87.6488 520.24 87.5788 519.98 87.5188 519.72C87.4971 519.263 87.5005 518.806 87.5288 518.35C87.663 517.711 87.8435 517.083 88.0688 516.47C88.2713 516.036 88.5018 515.615 88.7588 515.21C88.7788 515.17 88.8788 515.01 88.9888 514.83C88.9988 514.82 88.9988 514.82 88.9988 514.81C89.1488 514.64 89.2988 514.46 89.4588 514.3C89.7288 514 90.0188 513.74 90.3088 513.47C90.8728 513.101 91.4571 512.764 92.0588 512.46C93.0135 512.121 93.9931 511.857 94.9888 511.67C96.4571 511.553 97.9329 511.567 99.3988 511.71C100.787 511.951 102.157 512.288 103.499 512.72C102.686 514.298 101.76 515.815 100.729 517.26C100.689 517.32 100.649 517.38 100.609 517.43V517.43ZM89.4888 514.14C89.4007 514.281 89.2967 514.412 89.1788 514.53C89.2581 514.383 89.3631 514.251 89.4888 514.14V514.14Z" fill="#3F3D56"/>
<path id="Vector_16" d="M232.929 394.71C232.839 397.85 232.749 400.99 232.659 404.13C232.469 411.1 232.272 418.073 232.069 425.05C231.859 432.9 231.639 440.747 231.409 448.59C231.299 452.64 231.185 456.69 231.069 460.74C230.759 471.65 230.452 482.557 230.149 493.46C230.119 494.59 230.079 495.71 230.049 496.84C229.899 502.25 229.749 507.66 229.599 513.07C229.429 518.94 229.262 524.81 229.099 530.68C228.979 535.08 228.855 539.483 228.729 543.89C227.829 575.82 226.929 607.75 226.029 639.68C225.991 641.657 225.188 643.543 223.79 644.941C222.392 646.34 220.506 647.142 218.529 647.18C216.545 647.164 214.646 646.369 213.243 644.966C211.84 643.563 211.045 641.664 211.029 639.68C211.529 621.72 212.035 603.76 212.549 585.8C212.999 569.56 213.455 553.32 213.919 537.08C214.069 531.73 214.219 526.377 214.369 521.02C214.599 512.96 214.825 504.9 215.049 496.84C215.079 495.71 215.119 494.59 215.149 493.46C215.169 492.47 215.199 491.49 215.229 490.5C215.669 474.85 216.109 459.197 216.549 443.54C216.729 437.38 216.902 431.217 217.069 425.05C217.269 418.02 217.469 410.993 217.669 403.97C217.759 400.88 217.839 397.8 217.929 394.71C217.967 392.733 218.769 390.847 220.168 389.449C221.566 388.05 223.452 387.248 225.429 387.21C227.413 387.226 229.311 388.021 230.714 389.424C232.117 390.827 232.913 392.726 232.929 394.71V394.71Z" fill="#3F3D56"/>
<path id="Vector_17" d="M644.357 396.791C636.492 426.571 627.093 455.924 616.196 484.732C613.189 492.679 610.113 500.609 606.824 508.444L607.58 506.653C606.113 510.385 604.238 513.943 601.991 517.265C601.838 517.479 601.682 517.691 601.524 517.901C602.301 516.907 602.449 516.711 601.967 517.312C601.713 517.613 601.462 517.914 601.199 518.207C600.499 518.991 599.748 519.727 598.95 520.411C598.749 520.582 598.545 520.751 598.338 520.915L599.276 520.186C599.167 520.443 598.403 520.783 598.165 520.929C597.395 521.394 596.591 521.801 595.761 522.147L597.552 521.391C596.191 521.94 594.771 522.329 593.321 522.552L595.315 522.284C593.89 522.481 592.446 522.496 591.017 522.33L593.011 522.598C591.842 522.437 590.698 522.129 589.606 521.681L591.397 522.437C590.815 522.183 590.254 521.884 589.719 521.541C589.447 521.364 588.613 520.732 589.704 521.565C590.837 522.431 589.849 521.64 589.616 521.41C589.422 521.218 589.247 521.01 589.056 520.815C588.174 519.91 590.053 522.371 589.453 521.313C589.133 520.783 588.84 520.237 588.575 519.676L589.331 521.468C588.987 520.615 588.743 519.726 588.603 518.817L588.871 520.81C588.728 519.68 588.727 518.536 588.868 517.406L588.6 519.399C588.783 518.137 589.117 516.902 589.595 515.719L588.839 517.511C589.172 516.715 589.565 515.947 590.017 515.212C590.225 514.833 590.468 514.474 590.745 514.141C590.794 514.157 589.477 515.654 590.176 514.898C590.359 514.7 590.53 514.492 590.715 514.296C591.011 513.982 591.328 513.695 591.64 513.398C592.685 512.404 590.179 514.364 591.384 513.577C592.258 513.003 593.177 512.501 594.133 512.078L592.342 512.834C593.943 512.176 595.621 511.726 597.337 511.494L595.343 511.762C597.491 511.515 599.662 511.541 601.804 511.838L599.81 511.571C602.522 511.982 605.173 512.727 607.702 513.791L605.91 513.034C611.3 515.348 616.073 518.784 620.838 522.152C625.44 525.485 630.29 528.463 635.344 531.059C646.217 536.465 657.92 540.005 669.966 541.533C687.242 543.649 704.772 541.393 720.949 534.971C737.126 528.55 751.431 518.169 762.552 504.781C763.909 503.342 764.69 501.454 764.749 499.477C764.734 497.491 763.946 495.589 762.552 494.174C759.8 491.648 754.603 490.935 751.945 494.174C749.427 497.249 746.72 500.163 743.839 502.901C742.494 504.177 741.113 505.414 739.696 506.611C738.887 507.295 738.067 507.965 737.236 508.622C736.842 508.933 735.617 509.76 737.499 508.425C737.067 508.731 736.654 509.065 736.228 509.379C729.93 514.022 723.105 517.904 715.896 520.944L717.688 520.188C709.951 523.433 701.826 525.659 693.516 526.811L695.51 526.543C686.962 527.667 678.302 527.654 669.757 526.505L671.75 526.773C663.207 525.599 654.852 523.324 646.893 520.002L648.685 520.758C641.005 517.36 633.717 513.139 626.948 508.167C623.426 505.559 619.711 503.221 615.836 501.173C611.321 498.867 606.432 497.381 601.398 496.785C591.959 495.674 582.341 499.35 577.151 507.505C572.376 515.01 572.437 525.749 579.125 532.13C586.013 538.703 596.444 538.647 604.561 534.536C612.378 530.576 617.074 522.35 620.376 514.594C627.807 497.139 634.386 479.28 640.516 461.331C646.58 443.573 652.079 425.635 657.014 407.518C657.625 405.274 658.227 403.028 658.821 400.779C659.822 396.99 657.56 392.459 653.583 391.553C651.666 391.06 649.632 391.33 647.911 392.307C646.19 393.285 644.915 394.892 644.357 396.791L644.357 396.791Z" fill="#3F3D56"/>
<path id="Vector_18" d="M719.189 394.71L716.49 490.503L713.804 585.797L712.286 639.681C712.303 641.664 713.098 643.562 714.501 644.965C715.904 646.368 717.802 647.164 719.786 647.181C721.763 647.142 723.649 646.34 725.047 644.941C726.445 643.543 727.248 641.658 727.286 639.681L729.985 543.887L732.671 448.593L734.189 394.71C734.173 392.726 733.377 390.828 731.974 389.425C730.571 388.022 728.673 387.226 726.689 387.21C724.712 387.248 722.827 388.05 721.428 389.449C720.03 390.847 719.228 392.732 719.189 394.71V394.71Z" fill="#3F3D56"/>
<path id="Vector_19" d="M95.2488 527C101.324 527 106.249 522.075 106.249 516C106.249 509.925 101.324 505 95.2488 505C89.1736 505 84.2488 509.925 84.2488 516C84.2488 522.075 89.1736 527 95.2488 527Z" fill="#3F3D56"/>
<path id="Vector_20" d="M227.249 647C233.324 647 238.249 642.075 238.249 636C238.249 629.925 233.324 625 227.249 625C221.174 625 216.249 629.925 216.249 636C216.249 642.075 221.174 647 227.249 647Z" fill="#3F3D56"/>
<path id="Vector_21" d="M728.249 647C734.324 647 739.249 642.075 739.249 636C739.249 629.925 734.324 625 728.249 625C722.174 625 717.249 629.925 717.249 636C717.249 642.075 722.174 647 728.249 647Z" fill="#3F3D56"/>
<path id="Vector_22" d="M755.249 507C761.324 507 766.249 502.075 766.249 496C766.249 489.925 761.324 485 755.249 485C749.174 485 744.249 489.925 744.249 496C744.249 502.075 749.174 507 755.249 507Z" fill="#3F3D56"/>
<path id="Vector_23" d="M723.249 405C729.324 405 734.249 400.075 734.249 394C734.249 387.925 729.324 383 723.249 383C717.174 383 712.249 387.925 712.249 394C712.249 400.075 717.174 405 723.249 405Z" fill="#3F3D56"/>
<path id="Vector_24" d="M264.249 496C264.242 498.81 263.156 501.51 261.214 503.54C259.272 505.571 256.624 506.778 253.817 506.911C251.011 507.044 248.26 506.093 246.136 504.254C244.011 502.415 242.674 499.83 242.402 497.034C242.13 494.237 242.944 491.443 244.675 489.23C246.406 487.016 248.921 485.553 251.701 485.143C254.481 484.732 257.312 485.406 259.608 487.025C261.905 488.644 263.491 491.084 264.039 493.84C264.18 494.551 264.25 495.275 264.249 496V496Z" fill="#3F3D56"/>
<path id="Vector_25" d="M233.249 394C233.242 396.81 232.156 399.51 230.214 401.541C228.272 403.571 225.624 404.778 222.817 404.911C220.011 405.044 217.26 404.093 215.136 402.254C213.011 400.415 211.674 397.83 211.402 395.034C211.13 392.237 211.944 389.443 213.675 387.23C215.406 385.016 217.921 383.553 220.701 383.143C223.481 382.732 226.312 383.406 228.608 385.025C230.905 386.644 232.491 389.084 233.039 391.84C233.18 392.551 233.25 393.275 233.249 394V394Z" fill="#3F3D56"/>
<path id="Vector_26" d="M599.249 531C605.324 531 610.249 526.075 610.249 520C610.249 513.925 605.324 509 599.249 509C593.174 509 588.249 513.925 588.249 520C588.249 526.075 593.174 531 599.249 531Z" fill="#3F3D56"/>
<path id="Vector_27" d="M858.941 647.841L1.19067 648.148C1.03431 648.148 0.879476 648.117 0.735016 648.057C0.590556 647.997 0.459305 647.91 0.34874 647.799C0.238175 647.689 0.150459 647.557 0.0906219 647.413C0.0307847 647.269 0 647.114 0 646.957C0 646.801 0.0307847 646.646 0.0906219 646.502C0.150459 646.357 0.238175 646.226 0.34874 646.115C0.459305 646.005 0.590556 645.917 0.735016 645.857C0.879476 645.797 1.03431 645.767 1.19067 645.767L858.941 645.459C859.256 645.46 859.558 645.586 859.78 645.809C860.003 646.032 860.128 646.335 860.128 646.65C860.128 646.965 860.003 647.267 859.78 647.491C859.558 647.714 859.256 647.84 858.941 647.841V647.841Z" fill="#CACACA"/>
</g>
<g id="Ufo" clip-path="url(#clip0_9_83)">
<path id="Vector_28" d="M588 149.804C541.38 142.364 488.29 138.394 433 138.394C382.4 138.394 333.65 141.714 290.02 147.974C290.03 147.304 290.04 146.634 290.07 145.964C291.226 107.074 307.549 70.1783 335.55 43.1639C363.55 16.1495 401.007 1.1592 439.914 1.39689C478.821 1.63458 516.091 17.0814 543.759 44.4359C571.428 71.7904 587.299 108.882 587.98 147.784C587.99 148.464 588 149.134 588 149.804Z" fill="#6C63FF"/>
<g id="Group" opacity="0.1">
<path id="Vector_29" d="M458.55 1.34131C437.857 -1.45375 416.808 0.130411 396.766 5.99111C376.724 11.8518 358.138 21.8583 342.211 35.3619C326.284 48.8656 313.372 65.5652 304.312 84.3783C295.252 103.191 290.246 123.698 289.619 144.57C289.589 145.24 289.579 145.91 289.569 146.58C302.531 144.72 315.954 143.126 329.734 141.796C331.42 107.025 345.225 73.9407 368.755 48.2849C392.285 22.6291 424.054 6.02062 458.55 1.34131V1.34131Z" fill="white"/>
</g>
<path id="Vector_30" d="M653.18 161.624C631.72 155.806 609.953 151.186 587.98 147.784C551.966 142.203 515.658 138.714 479.24 137.334C464.07 136.714 448.62 136.394 433 136.394C420.62 136.394 408.34 136.594 396.23 136.994C360.706 138.044 325.266 141.038 290.07 145.964C264.016 149.552 238.214 154.782 212.82 161.624C153.61 177.994 121 199.934 121 223.394C121 246.854 153.61 268.794 212.82 285.164C254.46 296.684 305.8 304.534 361.74 308.134C384.83 309.634 408.7 310.394 433 310.394C457.38 310.394 481.33 309.624 504.49 308.124C555.4 304.834 602.5 298.024 641.92 288.124C642.13 288.064 642.33 288.014 642.54 287.964C645.2 287.304 647.82 286.614 650.41 285.924C651.34 285.664 652.26 285.414 653.18 285.164C653.232 285.143 653.285 285.126 653.34 285.114C654.22 284.874 655.09 284.624 655.96 284.384C657.7 283.884 659.42 283.394 661.11 282.884C661.19 282.864 661.26 282.844 661.33 282.824C662.8 282.384 664.24 281.944 665.67 281.504C666.84 281.134 668 280.774 669.15 280.404C669.99 280.134 670.82 279.864 671.64 279.594C672.24 279.394 672.83 279.204 673.41 279.004C674.2 278.744 674.99 278.474 675.77 278.204C676.1 278.094 676.43 277.984 676.75 277.864C677.5 277.614 678.23 277.354 678.96 277.094C679.75 276.814 680.54 276.524 681.32 276.244C681.97 276.014 682.62 275.774 683.26 275.534C683.8 275.324 684.33 275.124 684.87 274.924C686.34 274.374 687.78 273.804 689.2 273.244C689.91 272.954 690.62 272.674 691.32 272.384C692.01 272.104 692.71 271.814 693.39 271.524C694.51 271.054 695.61 270.584 696.69 270.114C697.21 269.874 697.74 269.644 698.25 269.424C698.64 269.244 699.02 269.074 699.41 268.894C699.69 268.774 699.97 268.644 700.24 268.514C701.25 268.054 702.25 267.584 703.23 267.114C706.99 265.314 710.5 263.474 713.76 261.594C734.21 249.884 745 236.894 745 223.394C745 199.934 712.39 177.994 653.18 161.624ZM652.64 283.244C610.95 294.774 559.47 302.624 503.38 306.194C480.57 307.644 456.99 308.394 433 308.394C409.09 308.394 385.59 307.654 362.85 306.204C306.67 302.644 255.11 294.794 213.36 283.244C155.09 267.124 123 245.874 123 223.394C123.003 221.408 123.252 219.429 123.74 217.504C128.84 197.224 160.21 178.244 213.36 163.544C238.562 156.755 264.166 151.555 290.02 147.974C325.428 143.02 361.082 140.016 396.82 138.974C408.74 138.584 420.8 138.391 433 138.394C448.41 138.394 463.65 138.704 478.63 139.304C515.26 140.672 551.779 144.178 588 149.804C609.783 153.191 631.363 157.778 652.64 163.544C705.78 178.244 737.14 197.214 742.25 217.484C742.746 219.415 742.998 221.4 743 223.394C743 245.874 710.91 267.124 652.64 283.244V283.244Z" fill="#3F3D56"/>
<path id="Vector_31" d="M744.43 224.304C744.43 237.664 733.42 250.304 713.76 261.594C710.49 263.474 706.97 265.314 703.23 267.114C702.25 267.584 701.25 268.054 700.24 268.514C699.97 268.644 699.69 268.774 699.41 268.894C699.02 269.074 698.64 269.244 698.25 269.424C697.74 269.644 697.21 269.874 696.69 270.114C695.61 270.584 694.51 271.054 693.39 271.524C692.71 271.814 692.01 272.104 691.32 272.384C690.62 272.674 689.91 272.954 689.2 273.244C687.78 273.804 686.34 274.374 684.87 274.924C684.33 275.124 683.8 275.324 683.26 275.534C682.62 275.774 681.97 276.014 681.32 276.244C680.54 276.524 679.75 276.814 678.96 277.094C678.23 277.354 677.5 277.614 676.75 277.864C676.43 277.984 676.1 278.094 675.77 278.204C674.99 278.474 674.2 278.744 673.41 279.004C672.83 279.204 672.24 279.394 671.64 279.594C670.82 279.864 669.99 280.134 669.15 280.404C668 280.774 666.84 281.134 665.67 281.504C664.24 281.944 662.8 282.384 661.33 282.824C661.26 282.844 661.19 282.864 661.11 282.884C659.42 283.394 657.7 283.884 655.96 284.384C655.09 284.624 654.22 284.874 653.34 285.114C653.285 285.126 653.232 285.143 653.18 285.164C652.26 285.414 651.34 285.664 650.41 285.924C647.83 286.604 645.2 287.294 642.54 287.964C642.33 288.014 642.13 288.064 641.92 288.124C603.57 297.704 556.52 304.684 504.45 308.054C481.64 309.524 457.86 310.304 433.43 310.304C408.78 310.304 384.8 309.514 361.81 308.014C224.57 299.064 122.43 264.984 122.43 224.304C122.441 221.829 122.818 219.369 123.55 217.004C123.61 217.174 123.67 217.334 123.74 217.504C138.01 254.984 239.28 285.274 370.68 292.664C390.81 293.804 411.66 294.394 433 294.394C454.43 294.394 475.36 293.794 495.57 292.654C626.86 285.234 728.03 254.934 742.25 217.484C742.49 216.884 742.7 216.284 742.88 215.684C743.894 218.445 744.418 221.362 744.43 224.304V224.304Z" fill="#3F3D56"/>
<path id="Vector_32" d="M212.669 213.54C196.027 213.54 178.339 209.959 178.339 203.323C178.339 196.687 196.027 193.106 212.669 193.106C229.312 193.106 247 196.687 247 203.323C247 209.959 229.312 213.54 212.669 213.54ZM212.669 195.106C193.616 195.106 180.339 199.437 180.339 203.323C180.339 207.209 193.616 211.54 212.669 211.54C231.722 211.54 245 207.209 245 203.323C245 199.437 231.722 195.106 212.669 195.106V195.106Z" fill="#3F3D56"/>
<path id="Vector_33" d="M283.669 260.54C267.027 260.54 249.339 256.959 249.339 250.323C249.339 243.687 267.027 240.106 283.669 240.106C300.312 240.106 318 243.687 318 250.323C318 256.959 300.312 260.54 283.669 260.54ZM283.669 242.106C264.616 242.106 251.339 246.437 251.339 250.323C251.339 254.209 264.616 258.54 283.669 258.54C302.722 258.54 316 254.209 316 250.323C316 246.437 302.722 242.106 283.669 242.106V242.106Z" fill="#3F3D56"/>
<path id="Vector_34" d="M652.669 213.54C636.027 213.54 618.339 209.959 618.339 203.323C618.339 196.687 636.027 193.106 652.669 193.106C669.312 193.106 687 196.687 687 203.323C687 209.959 669.312 213.54 652.669 213.54ZM652.669 195.106C633.616 195.106 620.339 199.437 620.339 203.323C620.339 207.209 633.616 211.54 652.669 211.54C671.722 211.54 685 207.209 685 203.323C685 199.437 671.722 195.106 652.669 195.106V195.106Z" fill="#3F3D56"/>
<g id="o">
<g id="0">
<path id="Vector_35" opacity="0.2" d="M459.591 612.935H461.92V506.893H516.249V504.571H461.92V459.826H503.876C503.261 459.044 502.628 458.272 501.977 457.509H461.92V427.956C461.15 427.628 460.374 427.311 459.591 427.013V457.509H413.939V419.644C413.157 419.68 412.387 419.734 411.61 419.799V457.509H375.19V429.258C374.408 429.604 373.638 429.969 372.873 430.351V457.509H342.258V459.826H372.873V504.571H342.258V506.893H372.873V612.935H375.19V506.893C379.973 506.892 384.71 507.834 389.129 509.664C393.548 511.494 397.563 514.176 400.945 517.559C404.327 520.941 407.01 524.956 408.84 529.375C410.67 533.794 411.611 538.53 411.61 543.314V612.935H413.939V506.893H459.591V612.935ZM375.19 504.571V459.826H411.61V504.571H375.19ZM413.939 504.571V459.826H414.853C420.728 459.827 426.546 460.984 431.975 463.233C437.403 465.482 442.335 468.778 446.489 472.933C450.643 477.088 453.939 482.02 456.187 487.449C458.435 492.877 459.592 498.695 459.591 504.571H413.939Z" fill="black"/>
<path id="Vector_36" d="M445.369 581.14C442.437 594.219 435.414 606.023 425.319 614.84C424.579 615.48 423.839 616.1 423.069 616.71C421.199 616.88 419.342 617.053 417.499 617.23C415.969 617.37 414.459 617.52 412.959 617.66L412.689 617.69L412.499 616.05L411.739 609.41C408.79 604.597 406.963 599.182 406.392 593.566C405.821 587.951 406.52 582.278 408.439 576.97C411.079 569.85 415.859 563.56 420.559 557.32C427.049 548.7 433.359 540.18 433.589 529.67C436.782 533.757 439.437 538.237 441.489 543C439.553 543.911 437.814 545.192 436.369 546.77C435.959 547.22 435.549 547.85 435.829 548.39C436.069 548.85 436.669 548.96 437.189 549.02C438.439 549.15 439.699 549.28 440.949 549.41C441.949 549.52 442.949 549.62 443.949 549.73C445.159 553.701 445.979 557.78 446.399 561.91C447.073 568.334 446.725 574.825 445.369 581.14V581.14Z" fill="#3F3D56"/>
<path id="Vector_37" d="M478.569 554.93C472.669 559.22 469.219 565.39 466.539 572.19C463.792 573.069 461.321 574.647 459.369 576.77C458.959 577.22 458.549 577.85 458.829 578.39C459.069 578.85 459.669 578.96 460.189 579.02C461.439 579.15 462.699 579.28 463.949 579.41C461.269 587.45 458.809 595.77 454.069 602.56C450.916 607.043 446.807 610.769 442.039 613.47C440.739 614.211 439.396 614.875 438.019 615.46C432.939 615.85 427.955 616.267 423.069 616.71C421.199 616.88 419.342 617.053 417.499 617.23C415.969 617.37 414.459 617.52 412.959 617.66C412.949 617.11 412.949 616.56 412.959 616.01C413.275 601.359 418.665 587.271 428.209 576.15C428.659 575.63 429.119 575.12 429.589 574.61C434.424 569.446 440.11 565.15 446.399 561.91C456.308 556.758 467.415 554.348 478.569 554.93V554.93Z" fill="#6C63FF"/>
<path id="Vector_38" d="M419.229 612.1L418.079 615.5L417.499 617.23C415.969 617.37 414.459 617.52 412.959 617.66L412.689 617.69C411.029 617.86 409.379 618.03 407.729 618.2C407.299 617.7 406.869 617.19 406.449 616.67C396.011 604.03 391.001 587.773 392.513 571.45C394.025 555.128 401.937 540.067 414.519 529.56C413.199 536.47 414.739 543.09 417.269 549.66C416.999 549.77 416.739 549.88 416.489 550C414.553 550.911 412.814 552.192 411.369 553.77C410.959 554.22 410.549 554.85 410.829 555.39C411.069 555.85 411.669 555.96 412.189 556.02C413.439 556.15 414.699 556.28 415.949 556.41C416.949 556.52 417.949 556.62 418.949 556.73C419.419 556.78 419.889 556.83 420.359 556.88C420.429 557.03 420.489 557.17 420.559 557.32C423.409 563.5 426.479 569.71 428.209 576.15C428.643 577.766 428.983 579.405 429.229 581.06C429.999 586.653 429.5 592.347 427.769 597.72C426.037 603.094 423.119 608.009 419.229 612.1V612.1Z" fill="#6C63FF"/>
<path id="Vector_39" d="M519.887 467.061C511.278 450.268 497.941 436.14 482.255 425.757C466.518 415.389 448.461 409.074 429.692 407.377C427.232 407.153 424.765 407.023 422.293 406.984C419.372 406.941 375.427 419.616 360.706 429.966C345.993 440.191 333.89 453.73 325.373 469.493C316.871 485.343 312.689 503.15 313.247 521.127C313.976 539.212 319.017 556.861 327.95 572.603C336.761 588.293 349.272 601.594 364.394 611.348C379.732 621.135 395.139 647.084 413.249 648C431.494 648.923 452.303 624.445 468.944 617.013C485.585 609.519 499.971 597.794 510.669 583.008C521.065 568.517 527.79 551.721 530.268 534.06C532.842 515.977 531.642 497.327 525.467 480.044C523.883 475.603 522.019 471.266 519.887 467.061C518.107 463.555 512.891 462.265 509.625 464.37C507.943 465.406 506.725 467.05 506.224 468.961C505.723 470.873 505.977 472.903 506.935 474.631C507.98 476.69 508.952 478.782 509.85 480.909L509.094 479.117C512.494 487.292 514.806 495.879 515.971 504.656L515.703 502.662C516.941 512.184 516.919 521.828 515.636 531.344L515.904 529.35C514.608 538.866 512.068 548.17 508.35 557.025L509.106 555.233C507.193 559.751 504.964 564.128 502.434 568.331C501.152 570.455 499.792 572.529 498.354 574.553C497.722 575.441 497.071 576.314 496.415 577.184C495.558 578.32 497.582 575.701 496.697 576.815C496.546 577.004 496.397 577.195 496.245 577.384C495.791 577.952 495.33 578.514 494.863 579.072C491.745 582.791 488.343 586.263 484.687 589.455C483.776 590.25 482.85 591.027 481.909 591.786C481.44 592.165 480.977 592.559 480.488 592.911C480.507 592.898 482.068 591.712 481.144 592.4C480.853 592.617 480.565 592.836 480.274 593.052C478.334 594.489 476.343 595.853 474.3 597.144C469.596 600.107 464.662 602.687 459.544 604.857L461.336 604.101C452.508 607.817 443.229 610.356 433.739 611.653L435.733 611.385C426.248 612.667 416.634 612.684 407.144 611.435L409.138 611.703C400.513 610.545 392.076 608.264 384.042 604.919L385.834 605.675C381.181 603.71 376.694 601.372 372.418 598.684C370.302 597.35 368.241 595.935 366.234 594.436C365.948 594.223 365.664 594.006 365.379 593.791C364.464 593.1 366.037 594.301 366.05 594.309C365.517 593.927 365.005 593.518 364.515 593.084C363.546 592.295 362.592 591.488 361.653 590.662C357.897 587.355 354.39 583.775 351.16 579.953C350.351 578.997 349.56 578.027 348.786 577.042C348.451 576.616 347.839 575.752 349.19 577.571C349.012 577.332 348.828 577.097 348.649 576.859C348.218 576.287 347.792 575.711 347.373 575.131C345.904 573.099 344.508 571.017 343.185 568.885C340.195 564.059 337.585 559.008 335.38 553.777L336.136 555.568C332.527 546.982 330.059 537.959 328.795 528.731L329.063 530.725C327.923 522.219 327.907 513.6 329.015 505.089L328.747 507.083C329.883 498.842 332.1 490.786 335.341 483.124L334.585 484.916C336.625 480.119 339.03 475.487 341.781 471.059C343.158 468.844 344.617 466.682 346.158 464.575C346.508 464.096 346.863 463.62 347.221 463.147C347.545 462.719 348.436 461.653 346.915 463.535C347.064 463.351 347.208 463.161 347.355 462.975C348.201 461.903 349.067 460.848 349.954 459.81C353.312 455.879 356.949 452.196 360.838 448.789C361.82 447.928 362.819 447.085 363.832 446.26C364.293 445.885 364.757 445.514 365.223 445.147C365.41 445 365.599 444.856 365.785 444.709C363.787 446.298 365.23 445.141 365.683 444.801C367.773 443.236 369.918 441.749 372.119 440.34C377.011 437.211 382.158 434.499 387.505 432.232L385.714 432.988C393.474 429.73 427.854 422.039 434.108 422.879L432.114 422.611C441.305 423.894 450.288 426.376 458.834 429.993L457.042 429.237C461.373 431.076 465.581 433.19 469.642 435.566C471.671 436.756 473.66 438.01 475.61 439.329C476.532 439.953 477.445 440.591 478.348 441.244C478.799 441.57 479.248 441.899 479.694 442.233C479.942 442.418 480.188 442.605 480.435 442.791C481.475 443.57 479.004 441.662 480.093 442.524C483.739 445.388 487.202 448.479 490.461 451.777C492.062 453.407 493.607 455.089 495.098 456.822C495.862 457.712 496.611 458.614 497.344 459.53C497.709 459.985 498.949 461.631 497.429 459.614C497.8 460.107 498.176 460.597 498.543 461.093C501.703 465.371 504.51 469.898 506.935 474.631C508.728 478.129 513.922 479.433 517.196 477.322C518.879 476.287 520.098 474.642 520.599 472.731C521.1 470.819 520.845 468.789 519.887 467.061Z" fill="#3F3D56"/>
<path id="Vector_40" d="M432.497 589.456C431.723 589.491 430.956 589.288 430.301 588.873C429.647 588.459 429.135 587.853 428.836 587.138C428.537 586.423 428.465 585.633 428.63 584.876C428.795 584.119 429.188 583.43 429.757 582.904C429.853 582.525 429.921 582.253 430.016 581.875C429.982 581.792 429.948 581.71 429.914 581.627C426.434 573.33 404.229 596.461 403.269 604.259C402.846 607.706 403.024 611.201 403.796 614.587C396.603 598.897 392.868 581.844 392.844 564.584C392.843 560.253 393.083 555.925 393.565 551.621C393.963 548.092 394.515 544.588 395.222 541.11C399.077 522.237 407.354 504.547 419.373 489.494C426.247 489.877 432.271 488.83 432.853 475.508C432.956 473.139 434.714 471.087 435.101 468.752C434.445 468.838 433.778 468.892 433.122 468.935C432.917 468.946 432.702 468.957 432.498 468.967L432.421 468.971C431.699 469.003 430.984 468.826 430.361 468.462C429.738 468.097 429.234 467.56 428.909 466.915C428.584 466.271 428.452 465.546 428.53 464.828C428.607 464.11 428.89 463.43 429.345 462.87C429.628 462.521 429.912 462.173 430.196 461.824C430.626 461.286 431.067 460.759 431.497 460.221C431.547 460.17 431.594 460.116 431.637 460.06C432.132 459.447 432.627 458.844 433.122 458.231C432.218 456.829 431.003 455.655 429.572 454.799C424.612 451.895 417.77 453.906 414.188 458.392C410.595 462.878 409.917 469.172 411.165 474.777C412.392 479.546 414.422 484.072 417.168 488.16C416.899 488.504 416.619 488.837 416.35 489.182C411.434 495.504 407.149 502.292 403.557 509.45C404.573 501.511 392.145 472.842 387.339 466.769C381.566 459.475 369.728 462.658 368.711 471.905C368.701 471.994 368.691 472.084 368.682 472.173C369.396 472.576 370.094 473.004 370.778 473.456C371.637 474.03 372.303 474.85 372.688 475.808C373.073 476.767 373.159 477.819 372.936 478.828C372.712 479.836 372.189 480.754 371.435 481.46C370.682 482.166 369.732 482.629 368.711 482.786L368.606 482.802C359.051 496.446 389.684 531.957 397.352 523.984C393.743 534.211 391.479 544.865 390.617 555.676C390.129 562.055 390.158 568.462 390.703 574.836L390.671 574.61C388.967 560.728 359.74 540.088 351.205 541.807C346.288 542.797 341.445 542.572 342.192 547.532C342.204 547.611 342.216 547.69 342.228 547.769C343.553 548.309 344.843 548.93 346.09 549.63C346.804 550.033 347.503 550.461 348.186 550.913C349.045 551.487 349.711 552.307 350.096 553.265C350.481 554.224 350.567 555.276 350.344 556.285C350.12 557.293 349.598 558.211 348.844 558.917C348.09 559.624 347.14 560.086 346.119 560.243L346.015 560.259C345.939 560.27 345.875 560.281 345.8 560.292C341.45 575.258 373.707 599.412 393.317 591.726H393.328C395.272 600.171 398.087 608.391 401.73 616.254H431.745C431.852 615.921 431.949 615.576 432.046 615.243C429.268 615.418 426.479 615.251 423.741 614.748C425.968 612.016 428.195 609.262 430.421 606.529C430.471 606.478 430.518 606.424 430.561 606.368C431.691 604.969 432.831 603.581 433.961 602.183L433.961 602.181C434.022 597.894 433.53 593.617 432.498 589.456L432.497 589.456ZM398.126 521.843L398.142 521.821L398.126 521.864V521.843ZM391.478 581.775L391.22 581.194C391.23 580.775 391.23 580.355 391.22 579.925C391.22 579.806 391.198 579.688 391.198 579.57C391.295 580.312 391.381 581.054 391.489 581.797L391.478 581.775Z" fill="#3F3D56"/>
<path id="Vector_41" d="M484.249 437C490.324 437 495.249 432.075 495.249 426C495.249 419.925 490.324 415 484.249 415C478.174 415 473.249 419.925 473.249 426C473.249 432.075 478.174 437 484.249 437Z" fill="#3F3D56"/>
<path id="Vector_42" d="M375.249 426C375.242 428.81 374.156 431.51 372.214 433.541C370.272 435.571 367.624 436.778 364.817 436.911C362.011 437.044 359.26 436.093 357.136 434.254C355.011 432.415 353.674 429.83 353.402 427.034C353.13 424.237 353.944 421.443 355.675 419.23C357.406 417.016 359.921 415.553 362.701 415.143C365.481 414.732 368.312 415.406 370.608 417.025C372.905 418.644 374.491 421.084 375.039 423.84C375.18 424.551 375.25 425.275 375.249 426V426Z" fill="#3F3D56"/>
<path id="Vector_43" d="M426.249 431C435.085 431 442.249 423.837 442.249 415C442.249 406.163 435.085 399 426.249 399C417.412 399 410.249 406.163 410.249 415C410.249 423.837 417.412 431 426.249 431Z" fill="#3F3D56"/>
</g>
</g>
<path id="Vector_44" d="M581.669 260.54C565.027 260.54 547.339 256.959 547.339 250.323C547.339 243.687 565.027 240.106 581.669 240.106C598.312 240.106 616 243.687 616 250.323C616 256.959 598.312 260.54 581.669 260.54ZM581.669 242.106C562.616 242.106 549.339 246.437 549.339 250.323C549.339 254.209 562.616 258.54 581.669 258.54C600.722 258.54 614 254.209 614 250.323C614 246.437 600.722 242.106 581.669 242.106V242.106Z" fill="#3F3D56"/>
<path id="Vector_45" d="M432.669 282.54C416.027 282.54 398.339 278.959 398.339 272.323C398.339 265.687 416.027 262.106 432.669 262.106C449.312 262.106 467 265.687 467 272.323C467 278.959 449.312 282.54 432.669 282.54ZM432.669 264.106C413.616 264.106 400.339 268.437 400.339 272.323C400.339 276.209 413.616 280.54 432.669 280.54C451.722 280.54 465 276.209 465 272.323C465 268.437 451.722 264.106 432.669 264.106V264.106Z" fill="#3F3D56"/>
<path id="Vector_46" d="M387 495.394C386.47 495.394 385.961 495.183 385.586 494.808C385.211 494.433 385 493.924 385 493.394V375.394C385 374.864 385.211 374.355 385.586 373.98C385.961 373.605 386.47 373.394 387 373.394C387.53 373.394 388.039 373.605 388.414 373.98C388.789 374.355 389 374.864 389 375.394V493.394C389 493.924 388.789 494.433 388.414 494.808C388.039 495.183 387.53 495.394 387 495.394Z" fill="#CCCCCC"/>
<path id="Vector_47" d="M357 601.394C356.47 601.394 355.961 601.183 355.586 600.808C355.211 600.433 355 599.924 355 599.394V513.394C355 512.864 355.211 512.355 355.586 511.98C355.961 511.605 356.47 511.394 357 511.394C357.53 511.394 358.039 511.605 358.414 511.98C358.789 512.355 359 512.864 359 513.394V599.394C359 599.924 358.789 600.433 358.414 600.808C358.039 601.183 357.53 601.394 357 601.394V601.394Z" fill="#CCCCCC"/>
<path id="Vector_48" d="M434 530.394C433.47 530.394 432.961 530.183 432.586 529.808C432.211 529.433 432 528.924 432 528.394V410.394C432 409.864 432.211 409.355 432.586 408.98C432.961 408.605 433.47 408.394 434 408.394C434.53 408.394 435.039 408.605 435.414 408.98C435.789 409.355 436 409.864 436 410.394V528.394C436 528.924 435.789 529.433 435.414 529.808C435.039 530.183 434.53 530.394 434 530.394Z" fill="#CCCCCC"/>
<path id="Vector_49" d="M405 615.394C404.47 615.394 403.961 615.183 403.586 614.808C403.211 614.433 403 613.924 403 613.394V565.394C403 564.864 403.211 564.355 403.586 563.98C403.961 563.605 404.47 563.394 405 563.394C405.53 563.394 406.039 563.605 406.414 563.98C406.789 564.355 407 564.864 407 565.394V613.394C407 613.924 406.789 614.433 406.414 614.808C406.039 615.183 405.53 615.394 405 615.394V615.394Z" fill="#CCCCCC"/>
<path id="Vector_50" d="M446 369.394C445.47 369.394 444.961 369.183 444.586 368.808C444.211 368.433 444 367.924 444 367.394V319.394C444 318.864 444.211 318.355 444.586 317.98C444.961 317.605 445.47 317.394 446 317.394C446.53 317.394 447.039 317.605 447.414 317.98C447.789 318.355 448 318.864 448 319.394V367.394C448 367.924 447.789 368.433 447.414 368.808C447.039 369.183 446.53 369.394 446 369.394V369.394Z" fill="#CCCCCC"/>
<path id="Vector_51" d="M346 390.394C345.47 390.394 344.961 390.183 344.586 389.808C344.211 389.433 344 388.924 344 388.394V340.394C344 339.864 344.211 339.355 344.586 338.98C344.961 338.605 345.47 338.394 346 338.394C346.53 338.394 347.039 338.605 347.414 338.98C347.789 339.355 348 339.864 348 340.394V388.394C348 388.924 347.789 389.433 347.414 389.808C347.039 390.183 346.53 390.394 346 390.394V390.394Z" fill="#CCCCCC"/>
<path id="Vector_52" d="M520 395.394C519.47 395.394 518.961 395.183 518.586 394.808C518.211 394.433 518 393.924 518 393.394V345.394C518 344.864 518.211 344.355 518.586 343.98C518.961 343.605 519.47 343.394 520 343.394C520.53 343.394 521.039 343.605 521.414 343.98C521.789 344.355 522 344.864 522 345.394V393.394C522 393.924 521.789 394.433 521.414 394.808C521.039 395.183 520.53 395.394 520 395.394Z" fill="#CCCCCC"/>
<path id="Vector_53" d="M516 545.394C515.47 545.394 514.961 545.183 514.586 544.808C514.211 544.433 514 543.924 514 543.394V485.394C514 484.864 514.211 484.355 514.586 483.98C514.961 483.605 515.47 483.394 516 483.394C516.53 483.394 517.039 483.605 517.414 483.98C517.789 484.355 518 484.864 518 485.394V543.394C518 543.924 517.789 544.433 517.414 544.808C517.039 545.183 516.53 545.394 516 545.394Z" fill="#CCCCCC"/>
<path id="Vector_54" d="M476 596.394C475.47 596.394 474.961 596.183 474.586 595.808C474.211 595.433 474 594.924 474 594.394V508.394C474 507.864 474.211 507.355 474.586 506.98C474.961 506.605 475.47 506.394 476 506.394C476.53 506.394 477.039 506.605 477.414 506.98C477.789 507.355 478 507.864 478 508.394V594.394C478 594.924 477.789 595.433 477.414 595.808C477.039 596.183 476.53 596.394 476 596.394Z" fill="#CCCCCC"/>
<path id="Vector_55" d="M484 449.394C483.47 449.394 482.961 449.183 482.586 448.808C482.211 448.433 482 447.924 482 447.394V329.394C482 328.864 482.211 328.355 482.586 327.98C482.961 327.605 483.47 327.394 484 327.394C484.53 327.394 485.039 327.605 485.414 327.98C485.789 328.355 486 328.864 486 329.394V447.394C486 447.924 485.789 448.433 485.414 448.808C485.039 449.183 484.53 449.394 484 449.394Z" fill="#CCCCCC"/>
</g>
</g>
<defs>
<clipPath id="clip0_9_83">
<rect width="624" height="649" fill="white" transform="translate(121)"/>
</clipPath>
</defs>
</svg>
