<svg width="616" height="600" viewBox="0 0 616 600" fill="none" xmlns="http://www.w3.org/2000/svg">
<g clip-path="url(#clip0_1_33)">
<path d="M548.267 578.372C548.848 578.399 549.422 578.246 549.913 577.936C550.404 577.625 550.787 577.171 551.011 576.636C551.235 576.1 551.289 575.508 551.165 574.941C551.042 574.374 550.747 573.858 550.32 573.464L550.126 572.693C550.152 572.631 550.178 572.569 550.203 572.507C550.788 571.127 551.767 569.951 553.019 569.125C554.27 568.3 555.738 567.862 557.237 567.868C558.737 567.874 560.201 568.322 561.446 569.157C562.691 569.991 563.662 571.175 564.236 572.56C566.531 578.085 569.454 583.62 570.173 589.462C570.49 592.045 570.356 594.662 569.778 597.199C575.169 585.445 577.968 572.67 577.986 559.739C577.987 556.495 577.807 553.252 577.446 550.028C577.147 547.384 576.734 544.76 576.204 542.154C573.315 528.015 567.111 514.762 558.103 503.485C553.743 501.107 550.217 497.451 548.001 493.008C547.197 491.411 546.63 489.706 546.315 487.947C546.807 488.011 548.17 480.524 547.799 480.065C548.484 479.025 549.711 478.508 550.46 477.494C554.183 472.448 559.312 473.329 561.989 480.186C567.71 483.071 567.765 487.857 564.255 492.46C562.022 495.388 561.715 499.351 559.756 502.486C559.958 502.744 560.167 502.993 560.369 503.251C564.054 507.987 567.265 513.073 569.957 518.435C569.302 512.428 570.084 506.351 572.237 500.705C574.419 495.442 578.51 491.01 582.112 486.461C583.065 485.239 584.359 484.327 585.83 483.839C587.301 483.352 588.884 483.312 590.378 483.724C591.872 484.135 593.211 484.981 594.225 486.153C595.238 487.325 595.882 488.771 596.073 490.308C596.081 490.376 596.088 490.443 596.095 490.51C595.56 490.811 595.036 491.132 594.524 491.47C593.88 491.9 593.381 492.514 593.093 493.233C592.804 493.951 592.739 494.739 592.907 495.495C593.074 496.25 593.466 496.938 594.031 497.467C594.596 497.996 595.308 498.342 596.073 498.46L596.151 498.472C595.961 500.4 595.624 502.31 595.143 504.186C599.764 522.049 589.788 528.556 575.543 528.848C575.228 529.009 574.922 529.17 574.608 529.323C577.312 536.986 579.009 544.967 579.655 553.066C580.02 557.845 579.999 562.645 579.59 567.42L579.615 567.251C580.647 561.941 583.48 557.15 587.637 553.687C593.811 548.617 602.533 546.751 609.193 542.676C609.901 542.222 610.724 541.979 611.565 541.977C612.407 541.975 613.231 542.213 613.941 542.664C614.651 543.115 615.217 543.759 615.573 544.521C615.929 545.283 616.059 546.131 615.948 546.965L615.921 547.143C614.928 547.547 613.962 548.012 613.027 548.537C612.492 548.839 611.968 549.159 611.455 549.497C610.812 549.927 610.313 550.542 610.024 551.26C609.736 551.978 609.671 552.766 609.839 553.522C610.006 554.278 610.398 554.965 610.963 555.494C611.528 556.023 612.24 556.369 613.005 556.487L613.083 556.499C613.14 556.507 613.188 556.516 613.244 556.524C611.548 560.573 609.167 564.299 606.206 567.541C603.316 583.135 590.906 584.614 577.631 580.073H577.623C576.167 586.4 574.056 592.558 571.326 598.448H548.831C548.75 598.198 548.678 597.941 548.605 597.691C550.687 597.822 552.778 597.697 554.83 597.32C553.161 595.273 551.492 593.21 549.823 591.163C549.785 591.124 549.75 591.084 549.718 591.042C548.871 589.994 548.017 588.954 547.17 587.907L547.17 587.906C547.124 584.694 547.493 581.49 548.267 578.373L548.267 578.372Z" fill="#F2F2F2"/>
<path d="M300.502 96.5038C301.324 97.7476 302.405 98.7982 303.673 99.583C304.94 100.368 306.363 100.868 307.843 101.049C309.323 101.23 310.824 101.088 312.244 100.632C313.663 100.176 314.967 99.4167 316.064 98.4077L362.832 119.499L371.849 108.003L316.118 83.3582C314.282 81.6385 311.878 80.652 309.362 80.5856C306.846 80.5192 304.394 81.3776 302.469 82.9979C300.544 84.6183 299.281 86.8882 298.918 89.3774C298.556 91.8666 299.12 94.4022 300.502 96.5038H300.502Z" fill="#A0616A"/>
<path d="M501.213 109.655L505.851 135.929C506.068 137.155 506.025 138.412 505.727 139.621C505.428 140.829 504.88 141.962 504.118 142.946C503.355 143.93 502.396 144.744 501.3 145.336C500.204 145.927 498.997 146.283 497.756 146.381L418.938 152.576L326.292 111.13L337.357 90.1332L417.783 115.591L501.213 109.655Z" fill="#6C63FF"/>
<path d="M491.255 225.46L462.543 286.602L572.991 275.421L549.936 216.726L491.255 225.46Z" fill="#A0616A"/>
<path d="M516.933 576.881L506.461 576.792L501.826 535.476L517.28 535.607L516.933 576.881Z" fill="#A0616A"/>
<path d="M483.39 593.525C483.381 594.766 483.864 595.96 484.734 596.845C485.604 597.73 486.79 598.234 488.032 598.246L508.852 598.42L512.497 591.035L513.836 598.457L521.692 598.528L519.708 572.054L516.975 571.873L505.826 571.104L502.23 570.864L502.167 578.354L485.441 589.693C484.815 590.119 484.301 590.689 483.944 591.357C483.586 592.024 483.396 592.768 483.39 593.525V593.525Z" fill="#2F2E41"/>
<path d="M401.044 576.928L391.06 573.767L398.774 532.914L413.509 537.577L401.044 576.928Z" fill="#A0616A"/>
<path d="M364.09 583.079C363.722 584.264 363.839 585.547 364.416 586.646C364.992 587.745 365.982 588.57 367.166 588.941L387.045 595.132L392.672 589.117L391.804 596.61L399.303 598.951L405.071 573.037L402.508 572.072L392.059 568.111L388.686 566.839L386.457 573.991L367.164 580.005C366.441 580.231 365.784 580.629 365.248 581.164C364.713 581.699 364.316 582.357 364.09 583.079V583.079Z" fill="#2F2E41"/>
<path d="M567.961 258.227L467.537 276.62C467.537 276.62 451.429 288.664 455.738 292.977C460.047 297.29 460.715 296.622 457.885 299.452C455.054 302.281 448.933 306.064 448.872 308.54C448.812 311.016 403.872 422.07 403.872 422.07C403.872 422.07 408.866 419.574 405.121 423.318C401.376 427.061 401.376 430.154 401.376 430.154L383.899 548.097L412.282 549.767L440.074 442.241L502.065 341.788C502.065 341.788 508.216 431.366 508.474 437.324C508.732 443.282 512.477 435.796 508.732 443.282C504.987 450.769 502.49 445.778 504.987 450.769C507.483 455.76 495.993 557.374 495.993 557.374H521.899L577.462 346.757C577.462 346.757 597.231 286.544 567.961 258.227Z" fill="#2F2E41"/>
<path d="M538.377 89.7595L498.15 85.5815L487.728 99.1067L475.587 105.571C470.449 108.306 466.208 112.463 463.371 117.544C460.534 122.625 459.221 128.416 459.59 134.223L473.779 216.726C473.779 216.726 461.793 243.702 470.034 250.416C478.274 257.131 463.663 273.759 481.269 265.39C498.874 257.021 574.893 266.638 574.893 266.638L558.665 220.469L570.788 175.103L572.122 137.063C572.371 129.955 570.261 122.964 566.12 117.18C561.979 111.396 556.04 107.144 549.228 105.086L547.533 104.574L538.377 89.7595Z" fill="#6C63FF"/>
<path d="M593.759 58.9336C594.022 70.2673 589.785 81.2416 583.697 90.8809C581.889 85.2536 578.637 80.1321 575.246 75.2499C576.955 85.8115 575.134 96.6419 570.065 106.065C569.887 106.193 569.701 106.311 569.511 106.42C564.549 109.404 558.258 110.612 552.89 108.457C563.981 96.5077 565.392 76.7087 556.094 63.3052C553.462 59.5019 550.057 56.1381 548.427 51.8099C545.852 44.904 548.327 37.3003 549.888 30.1002C551.348 23.399 551.603 15.4245 547.106 10.5134C547.586 9.82711 548.24 9.28079 549.002 8.93047C549.763 8.58015 550.603 8.43842 551.437 8.51978C554.211 8.91133 556.229 11.3206 557.515 13.8021C558.8 16.2835 559.648 19.0337 561.44 21.177C564.758 25.1887 570.408 26.1371 575.17 28.2513C586.701 33.3855 593.482 46.3222 593.759 58.9336Z" fill="#2F2E41"/>
<path d="M296.666 598.515C296.665 598.71 296.703 598.904 296.777 599.084C296.852 599.264 296.961 599.428 297.099 599.566C297.238 599.704 297.401 599.814 297.582 599.888C297.762 599.963 297.956 600.001 298.151 600H614.34C614.733 600 615.111 599.844 615.39 599.565C615.668 599.287 615.825 598.909 615.825 598.515C615.825 598.121 615.668 597.744 615.39 597.465C615.111 597.187 614.733 597.03 614.34 597.03H298.151C297.956 597.03 297.762 597.068 297.582 597.142C297.401 597.216 297.238 597.326 297.099 597.464C296.961 597.602 296.852 597.766 296.778 597.946C296.703 598.127 296.665 598.32 296.666 598.515Z" fill="#CCCCCC"/>
<path d="M596.248 321.616C602.453 321.616 607.483 316.589 607.483 310.386C607.483 304.184 602.453 299.156 596.248 299.156C590.043 299.156 585.013 304.184 585.013 310.386C585.013 316.589 590.043 321.616 596.248 321.616Z" fill="#6C63FF"/>
<path d="M496.691 52.4534C497.35 50.148 492.808 64.2405 495 64.4949C504.982 65.6396 518.686 71.5988 525.638 74.3789C525.951 74.3426 526.265 74.3062 526.568 74.2608C527.314 74.179 528.042 74.0609 528.76 73.9247C544.949 70.8629 551.175 46.0051 551.175 45.778C551.175 44.6605 548.492 13.968 544.265 13.5138C543.155 13.3934 542.039 13.3327 540.922 13.3321H530.433C528.263 12.8646 526.063 12.5458 523.849 12.3781H523.83C502.715 10.77 486.065 23.6348 487.621 39.2888C487.631 39.307 487.649 39.3252 487.658 39.3433C488.109 40.0156 488.505 40.6516 488.855 41.2603C489.196 41.8327 489.482 42.3778 489.73 42.8957C491.655 46.8932 486.707 51.9234 489.988 52.8623C494.351 54.1111 478.513 95.1545 495.782 95.1545C487.382 97.5418 494.874 58.8131 496.691 52.4534Z" fill="#2F2E41"/>
<path d="M515.541 76.536C529.257 76.536 540.375 65.4223 540.375 51.7129C540.375 38.0035 529.257 26.8898 515.541 26.8898C501.826 26.8898 490.708 38.0035 490.708 51.7129C490.708 65.4223 501.826 76.536 515.541 76.536Z" fill="#A0616A"/>
<path d="M487.621 40.6425C488.036 40.8605 488.441 41.0603 488.855 41.2603C489.288 41.4692 489.721 41.6782 490.154 41.869C498.469 45.6394 505.238 46.0573 509.345 40.6425C509.455 37.7933 510.095 34.9895 511.233 32.3748C511.032 35.2968 511.802 38.2033 513.424 40.6425H521.694C530.212 46.2935 534.586 46.8841 528.674 65.4363C527.026 70.6058 520.472 100.687 523.05 105.148C523.796 105.066 531.732 72.1179 532.45 71.9817C548.639 68.9199 558.925 42.2596 557.608 40.7515C557.615 36.4627 556.628 32.2306 554.726 28.3864C552.319 23.516 548.568 19.4363 543.915 16.63C541.141 15.2857 538.25 14.2 535.277 13.3865C535.203 13.3683 535.139 13.3501 535.065 13.332C534.153 13.0866 533.223 12.8595 532.293 12.6687C530.372 12.2632 528.429 11.9689 526.473 11.7875C526.335 11.7784 526.197 11.7693 526.068 11.7693C525.287 11.7711 524.521 11.9812 523.849 12.378C523.84 12.378 523.84 12.3871 523.83 12.3871C523.35 12.6677 522.93 13.0414 522.596 13.4864C522.008 14.235 521.69 15.1602 521.694 16.112H512.485C512.144 16.112 511.804 16.1211 511.463 16.1393C505.317 16.3492 499.47 18.8441 495.068 23.1358C490.665 27.4275 488.023 33.207 487.658 39.3433C487.631 39.7793 487.621 40.2063 487.621 40.6425Z" fill="#2F2E41"/>
<path d="M541.919 32.7072C550.954 32.7072 558.279 25.3854 558.279 16.3536C558.279 7.32175 550.954 0 541.919 0C532.883 0 525.558 7.32175 525.558 16.3536C525.558 25.3854 532.883 32.7072 541.919 32.7072Z" fill="#2F2E41"/>
<path d="M596.374 315.017C597.173 313.758 597.688 312.342 597.885 310.864C598.082 309.387 597.955 307.885 597.514 306.461C597.073 305.038 596.327 303.727 595.329 302.62C594.332 301.512 593.105 300.635 591.735 300.048L591.816 248.762L577.629 245.252L577.979 306.166C577.162 308.545 577.247 311.141 578.217 313.462C579.188 315.783 580.976 317.668 583.243 318.759C585.511 319.85 588.1 320.071 590.52 319.382C592.94 318.692 595.023 317.139 596.374 315.017V315.017Z" fill="#A0616A"/>
<path d="M526.124 126.623L548.199 111.626C549.229 110.927 550.394 110.45 551.619 110.227C552.844 110.004 554.102 110.039 555.313 110.331C556.523 110.623 557.66 111.164 558.648 111.921C559.637 112.677 560.457 113.632 561.055 114.724L599.008 184.05L599.153 285.509L575.458 284.024L565.73 200.26L526.124 126.623Z" fill="#6C63FF"/>
</g>
<defs>
<clipPath id="clip0_1_33">
<rect width="616" height="600" fill="white"/>
</clipPath>
</defs>
</svg>
